<?xml version="1.0" standalone="no"?>
<!DOCTYPE svg PUBLIC "-//W3C//DTD SVG 20010904//EN"
 "http://www.w3.org/TR/2001/REC-SVG-20010904/DTD/svg10.dtd">
<svg version="1.0" xmlns="http://www.w3.org/2000/svg"
 width="900.000000pt" height="900.000000pt" viewBox="0 0 900.000000 900.000000"
 preserveAspectRatio="xMidYMid meet">
<metadata>
Created by potrace 1.11, written by Peter Selinger 2001-2013
</metadata>
<g transform="translate(0.000000,900.000000) scale(0.100000,-0.100000)"
fill="#000000" stroke="none">
<path d="M4135 8579 c-796 -79 -1513 -370 -2137 -867 -171 -136 -474 -439
-610 -610 -506 -635 -799 -1367 -869 -2170 -7 -83 -9 -242 -6 -420 5 -305 21
-460 72 -713 317 -1560 1543 -2792 3099 -3114 567 -117 1129 -113 1691 11 595
132 1139 394 1634 787 162 128 480 446 608 608 484 611 764 1282 859 2059 26
205 26 687 1 890 -74 601 -258 1139 -557 1630 -451 742 -1136 1323 -1935 1640
-313 125 -615 204 -960 251 -121 17 -214 22 -475 24 -179 2 -365 -1 -415 -6z
m2456 -2386 c74 -38 111 -93 117 -172 2 -32 -1 -76 -8 -97 -10 -32 -273 -300
-1444 -1472 -787 -788 -1444 -1441 -1461 -1449 -46 -25 -105 -33 -160 -21 -49
10 -62 22 -683 642 -612 610 -633 633 -649 685 -23 82 -6 148 55 211 64 66
135 84 227 59 34 -9 118 -88 571 -540 l530 -530 1335 1335 c1041 1042 1344
1339 1379 1355 64 29 125 27 191 -6z"/>
</g>
</svg>
