<?xml version="1.0" standalone="no"?>
<!DOCTYPE svg PUBLIC "-//W3C//DTD SVG 20010904//EN"
 "http://www.w3.org/TR/2001/REC-SVG-20010904/DTD/svg10.dtd">
<svg version="1.0" xmlns="http://www.w3.org/2000/svg"
 width="256.000000pt" height="256.000000pt" viewBox="0 0 256.000000 256.000000"
 preserveAspectRatio="xMidYMid meet">
<metadata>
Created by potrace 1.11, written by Peter Selinger 2001-2013
</metadata>
<g transform="translate(0.000000,256.000000) scale(0.100000,-0.100000)"
fill="#000000" stroke="none">
<path d="M1180 2554 c-309 -29 -583 -157 -800 -374 -247 -247 -373 -551 -373
-900 0 -349 126 -653 373 -900 247 -247 551 -373 900 -373 349 0 653 126 900
373 247 247 373 551 373 900 0 349 -126 653 -373 900 -188 188 -408 305 -666
354 -85 16 -261 26 -334 20z m657 -547 l163 -152 0 -712 c0 -634 -2 -713 -16
-727 -14 -14 -91 -16 -704 -16 -613 0 -690 2 -704 16 -14 14 -16 106 -16 864
0 758 2 850 16 864 14 14 78 16 557 16 l542 0 162 -153z"/>
<path d="M977 1625 c-48 -53 -87 -100 -87 -105 0 -5 39 -52 87 -105 l86 -95
28 26 28 27 -62 69 c-34 38 -62 73 -62 78 0 5 28 40 62 78 l62 69 -28 27 -28
26 -86 -95z"/>
<path d="M1468 1693 l-27 -26 62 -69 c34 -38 62 -73 62 -78 0 -5 -28 -40 -62
-78 l-62 -69 28 -27 28 -26 86 95 c48 53 87 100 87 105 0 7 -168 200 -174 200
-1 0 -13 -12 -28 -27z"/>
<path d="M1344 986 c-41 -18 -64 -52 -64 -96 0 -52 17 -69 112 -115 86 -41
101 -60 73 -89 -27 -27 -79 -20 -107 13 -23 27 -26 28 -56 15 -18 -7 -32 -17
-32 -21 0 -21 36 -57 74 -74 132 -60 260 37 201 151 -11 21 -38 40 -100 69
-63 30 -85 46 -85 60 0 38 69 43 98 6 18 -22 22 -23 56 -13 42 13 43 16 14 53
-40 51 -120 69 -184 41z"/>
<path d="M1130 849 c0 -166 -13 -205 -54 -163 -15 14 -19 13 -47 -7 l-31 -22
25 -24 c49 -50 155 -36 177 23 6 14 10 95 10 180 l0 154 -40 0 -40 0 0 -141z"/>
</g>
</svg>
