<svg xmlns="http://www.w3.org/2000/svg" width="27" height="26"><path fill="#fff" d="M22.678 11.951h2.774a1.049 1.049 0 010 2.097h-2.798a9.23 9.23 0 01-8.106 8.014v2.89a1.049 1.049 0 01-2.096 0v-2.89a9.23 9.23 0 01-8.106-8.014H1.548a1.048 1.048 0 110-2.097h2.774a9.23 9.23 0 018.13-8.223v-2.68a1.049 1.049 0 012.096 0v2.68a9.23 9.23 0 018.13 8.223zm-1.77 2.097h-2.585a1.048 1.048 0 110-2.097h2.614a7.5 7.5 0 00-6.389-6.48v2.706a1.048 1.048 0 11-2.096 0V5.472a7.5 7.5 0 00-6.39 6.48h2.615a1.048 1.048 0 010 2.096H6.092a7.5 7.5 0 006.36 6.27v-2.495a1.048 1.048 0 112.096 0v2.495a7.5 7.5 0 006.36-6.27z"/></svg>