<?xml version="1.0" standalone="no"?>
<!DOCTYPE svg PUBLIC "-//W3C//DTD SVG 20010904//EN"
 "http://www.w3.org/TR/2001/REC-SVG-20010904/DTD/svg10.dtd">
<svg version="1.0" xmlns="http://www.w3.org/2000/svg"
 width="512.000000pt" height="512.000000pt" viewBox="0 0 512.000000 512.000000"
 preserveAspectRatio="xMidYMid meet">
<metadata>
Created by potrace 1.11, written by Peter Selinger 2001-2013
</metadata>
<g transform="translate(0.000000,512.000000) scale(0.100000,-0.100000)"
fill="#000000" stroke="none">
<path d="M2380 5113 c-382 -37 -641 -107 -945 -257 -276 -136 -479 -282 -692
-497 -211 -213 -346 -403 -479 -674 -427 -868 -329 -1892 255 -2670 95 -126
306 -343 433 -446 436 -350 951 -543 1518 -566 582 -23 1158 159 1638 519 119
89 339 302 437 423 169 208 347 525 428 760 246 717 178 1479 -192 2125 -205
360 -521 688 -871 905 -340 210 -728 339 -1130 375 -107 9 -320 11 -400 3z
m1553 -1681 l177 -177 -593 -590 c-325 -325 -775 -772 -1000 -995 l-407 -405
-620 620 -620 620 177 177 c98 98 182 178 188 178 6 0 204 -193 440 -430 236
-236 433 -430 436 -430 4 0 373 362 821 805 447 442 815 805 818 805 3 0 85
-80 183 -178z"/>
</g>
</svg>
