<svg xmlns="http://www.w3.org/2000/svg" width="27" height="26" viewBox="0 0 27 26"><g><g><path fill="#fff" d="M22.678 11.951h2.774a1.049 1.049 0 0 1 0 2.097h-2.798a9.23 9.23 0 0 1-8.106 8.014v2.89a1.049 1.049 0 0 1-2.096 0v-2.89a9.23 9.23 0 0 1-8.106-8.014H1.548a1.048 1.048 0 1 1 0-2.097h2.774a9.23 9.23 0 0 1 8.13-8.223v-2.68a1.049 1.049 0 0 1 2.096 0v2.68a9.23 9.23 0 0 1 8.13 8.223zm-1.77 2.097h-2.585a1.048 1.048 0 1 1 0-2.097h2.614a7.5 7.5 0 0 0-6.389-6.48v2.706a1.048 1.048 0 1 1-2.096 0V5.472a7.5 7.5 0 0 0-6.39 6.48h2.615a1.048 1.048 0 0 1 0 2.096H6.092a7.5 7.5 0 0 0 6.36 6.27v-2.495a1.048 1.048 0 1 1 2.096 0v2.495a7.5 7.5 0 0 0 6.36-6.27z"/></g></g></svg>